<svg width="32" height="32" viewBox="0 0 32 32" fill="none" xmlns="http://www.w3.org/2000/svg">
<g clip-path="url(#clip0_12_92)">
<path d="M31.3768 6.67595C32.8302 11.1666 31.6139 15.7362 29.0506 19.1792C27.3587 21.514 25.3367 23.5262 23.2694 25.2854C21.3674 27.0558 17.1112 30.5588 15.9829 30.6561C14.9858 30.4655 13.8669 29.3379 13.0752 28.7576C8.62675 25.376 3.83813 21.2637 1.41008 16.7675C-0.625654 12.4509 -0.629388 7.11184 2.53896 3.80243C6.64723 0.0987484 12.8409 0.822455 15.9829 4.69187C16.8268 3.5972 17.8644 2.73627 19.0959 2.10912C24.0882 0.116375 29.2818 2.14694 31.3768 6.67595Z" fill="white"/>
</g>
<defs>
<clipPath id="clip0_12_92">
<rect width="32" height="32" fill="white"/>
</clipPath>
</defs>
</svg>
