<svg width="51" height="51" viewBox="0 0 51 51" fill="none" xmlns="http://www.w3.org/2000/svg">
<path d="M8.5 38.25H42.5C43.6688 38.25 44.625 37.2938 44.625 36.125C44.625 34.9562 43.6688 34 42.5 34H8.5C7.33125 34 6.375 34.9562 6.375 36.125C6.375 37.2938 7.33125 38.25 8.5 38.25ZM8.5 27.625H42.5C43.6688 27.625 44.625 26.6687 44.625 25.5C44.625 24.3313 43.6688 23.375 42.5 23.375H8.5C7.33125 23.375 6.375 24.3313 6.375 25.5C6.375 26.6687 7.33125 27.625 8.5 27.625ZM6.375 14.875C6.375 16.0438 7.33125 17 8.5 17H42.5C43.6688 17 44.625 16.0438 44.625 14.875C44.625 13.7062 43.6688 12.75 42.5 12.75H8.5C7.33125 12.75 6.375 13.7062 6.375 14.875Z" fill="#0CA8AC"/>
</svg>
