<svg width="22" height="23" viewBox="0 0 22 23" fill="none" xmlns="http://www.w3.org/2000/svg">
<path d="M8.78075 0.781739C7.40645 0.782473 6.05149 1.10538 4.82477 1.72451C3.59805 2.34364 2.53379 3.24172 1.71753 4.34657C0.901266 5.45142 0.355768 6.73223 0.124877 8.08604C-0.106013 9.43986 -0.0158555 10.8289 0.388104 12.1416C0.792064 13.4542 1.49856 14.6539 2.4508 15.6441C3.40305 16.6344 4.57448 17.3875 5.87096 17.8431C7.16743 18.2987 8.55278 18.444 9.91566 18.2673C11.2785 18.0907 12.5809 17.5969 13.7182 16.8259L19.1476 22.2471C19.2984 22.4088 19.4802 22.5385 19.6823 22.6285C19.8844 22.7185 20.1025 22.7668 20.3237 22.7707C20.5448 22.7746 20.7645 22.734 20.9697 22.6512C21.1748 22.5684 21.3611 22.4452 21.5175 22.2889C21.6739 22.1325 21.7973 21.9463 21.8801 21.7414C21.963 21.5364 22.0036 21.3169 21.9997 21.0958C21.9958 20.8748 21.9474 20.6568 21.8574 20.4549C21.7674 20.253 21.6376 20.0713 21.4757 19.9206L16.0507 14.495C16.9482 13.175 17.4687 11.6355 17.5562 10.042C17.6437 8.4485 17.2949 6.86134 16.5473 5.45113C15.7996 4.04093 14.6815 2.86103 13.3131 2.03831C11.9447 1.21559 10.3777 0.78116 8.78075 0.781739ZM3.28985 9.56102C3.28985 8.10576 3.86835 6.71011 4.89809 5.68109C5.92784 4.65207 7.32447 4.07397 8.78075 4.07397C10.237 4.07397 11.6337 4.65207 12.6634 5.68109C13.6931 6.71011 14.2716 8.10576 14.2716 9.56102C14.2716 11.0163 13.6931 12.4119 12.6634 13.4409C11.6337 14.47 10.237 15.0481 8.78075 15.0481C7.32447 15.0481 5.92784 14.47 4.89809 13.4409C3.86835 12.4119 3.28985 11.0163 3.28985 9.56102Z" fill="#C4C4C4"/>
</svg>
